<mxfile host="app.diagrams.net" agent="Mozilla/5.0 (Windows NT 10.0; Win64; x64; rv:139.0) Gecko/20100101 Firefox/139.0" version="27.1.6" pages="2">
  <diagram name="Page-1" id="PIsVZTEoARvesK_FBy6J">
    <mxGraphModel dx="1209" dy="725" grid="1" gridSize="10" guides="1" tooltips="1" connect="1" arrows="1" fold="1" page="1" pageScale="1" pageWidth="3300" pageHeight="4681" math="0" shadow="0">
      <root>
        <mxCell id="0" />
        <mxCell id="1" parent="0" />
        <mxCell id="AaEOKYUnrWKwZ1b31guK-3" style="edgeStyle=orthogonalEdgeStyle;rounded=0;orthogonalLoop=1;jettySize=auto;html=1;exitX=1;exitY=0.5;exitDx=0;exitDy=0;entryX=0;entryY=0.5;entryDx=0;entryDy=0;" edge="1" parent="1" source="AaEOKYUnrWKwZ1b31guK-1" target="AaEOKYUnrWKwZ1b31guK-2">
          <mxGeometry relative="1" as="geometry" />
        </mxCell>
        <mxCell id="AaEOKYUnrWKwZ1b31guK-1" value="data:numeric&#xa;Raw Gene&#xa;Expression" style="rectangle;fillColor=#fff2cc;strokeColor=#d6b656;" name="data" vertex="1" parent="1">
          <mxGeometry x="590" y="230" width="100" height="50" as="geometry" />
        </mxCell>
        <mxCell id="AaEOKYUnrWKwZ1b31guK-5" style="edgeStyle=orthogonalEdgeStyle;rounded=0;orthogonalLoop=1;jettySize=auto;html=1;exitX=1;exitY=0.5;exitDx=0;exitDy=0;entryX=0.5;entryY=0;entryDx=0;entryDy=0;" edge="1" parent="1" source="AaEOKYUnrWKwZ1b31guK-2" target="AaEOKYUnrWKwZ1b31guK-4">
          <mxGeometry relative="1" as="geometry" />
        </mxCell>
        <mxCell id="AaEOKYUnrWKwZ1b31guK-2" value="transform" style="rounded=1;whiteSpace=wrap;html=1;arcSize=50;fillColor=#f8cecc;strokeColor=#b85450;" name="transform" vertex="1" parent="1">
          <mxGeometry x="770" y="230" width="100" height="50" as="geometry" />
        </mxCell>
        <mxCell id="AaEOKYUnrWKwZ1b31guK-7" style="edgeStyle=orthogonalEdgeStyle;rounded=0;orthogonalLoop=1;jettySize=auto;html=1;exitX=0.5;exitY=1;exitDx=0;exitDy=0;entryX=1;entryY=0.5;entryDx=0;entryDy=0;" edge="1" parent="1" source="AaEOKYUnrWKwZ1b31guK-4" target="AaEOKYUnrWKwZ1b31guK-6">
          <mxGeometry relative="1" as="geometry" />
        </mxCell>
        <mxCell id="AaEOKYUnrWKwZ1b31guK-4" value="data:numeric&#xa;Normalized Gene&#xa;Expression Data" style="rectangle;fillColor=#fff2cc;strokeColor=#d6b656;" name="data" vertex="1" parent="1">
          <mxGeometry x="900" y="330" width="100" height="50" as="geometry" />
        </mxCell>
        <mxCell id="AaEOKYUnrWKwZ1b31guK-9" style="edgeStyle=orthogonalEdgeStyle;rounded=0;orthogonalLoop=1;jettySize=auto;html=1;exitX=0;exitY=0.5;exitDx=0;exitDy=0;entryX=0.5;entryY=0;entryDx=0;entryDy=0;" edge="1" parent="1" source="AaEOKYUnrWKwZ1b31guK-6" target="AaEOKYUnrWKwZ1b31guK-8">
          <mxGeometry relative="1" as="geometry" />
        </mxCell>
        <mxCell id="AaEOKYUnrWKwZ1b31guK-6" value="transform" style="rounded=1;whiteSpace=wrap;html=1;arcSize=50;fillColor=#f8cecc;strokeColor=#b85450;" name="transform" vertex="1" parent="1" tooltip="⚠️ Node not part of any valid pattern.">
          <mxGeometry x="770" y="430" width="100" height="50" as="geometry" />
        </mxCell>
        <mxCell id="AaEOKYUnrWKwZ1b31guK-11" style="edgeStyle=orthogonalEdgeStyle;rounded=0;orthogonalLoop=1;jettySize=auto;html=1;exitX=0;exitY=0.5;exitDx=0;exitDy=0;entryX=0.5;entryY=0;entryDx=0;entryDy=0;" edge="1" parent="1" source="AaEOKYUnrWKwZ1b31guK-8" target="AaEOKYUnrWKwZ1b31guK-10">
          <mxGeometry relative="1" as="geometry" />
        </mxCell>
        <mxCell id="AaEOKYUnrWKwZ1b31guK-18" style="edgeStyle=orthogonalEdgeStyle;rounded=0;orthogonalLoop=1;jettySize=auto;html=1;exitX=1;exitY=0.5;exitDx=0;exitDy=0;entryX=0.5;entryY=0;entryDx=0;entryDy=0;" edge="1" parent="1" source="AaEOKYUnrWKwZ1b31guK-8" target="AaEOKYUnrWKwZ1b31guK-17">
          <mxGeometry relative="1" as="geometry" />
        </mxCell>
        <mxCell id="AaEOKYUnrWKwZ1b31guK-8" value="data:numeric&#xa;Ranked Informative&#xa;Genes" style="rectangle;fillColor=#fff2cc;strokeColor=#d6b656;" name="data" vertex="1" parent="1">
          <mxGeometry x="640" y="530" width="100" height="50" as="geometry" />
        </mxCell>
        <mxCell id="AaEOKYUnrWKwZ1b31guK-13" style="edgeStyle=orthogonalEdgeStyle;rounded=0;orthogonalLoop=1;jettySize=auto;html=1;exitX=0;exitY=0.5;exitDx=0;exitDy=0;entryX=0.5;entryY=0;entryDx=0;entryDy=0;" edge="1" parent="1" source="AaEOKYUnrWKwZ1b31guK-10" target="AaEOKYUnrWKwZ1b31guK-12">
          <mxGeometry relative="1" as="geometry" />
        </mxCell>
        <mxCell id="AaEOKYUnrWKwZ1b31guK-10" value="infer:deduce" style="rounded=1;whiteSpace=wrap;html=1;arcSize=50;fillColor=#bac8d3;strokeColor=#23445d;" name="infer:deduce" vertex="1" parent="1" tooltip="⚠️ Node not part of any valid pattern.">
          <mxGeometry x="510" y="630" width="100" height="50" as="geometry" />
        </mxCell>
        <mxCell id="AaEOKYUnrWKwZ1b31guK-12" value="symbol&#xa;Type-2 Fuzzy&#xa;Rules" style="rectangle;fillColor=#dae8fc;strokeColor=#6c8ebf;" name="symbol" vertex="1" parent="1" tooltip="⚠️ Node not part of any valid pattern.">
          <mxGeometry x="380" y="730" width="100" height="50" as="geometry" />
        </mxCell>
        <mxCell id="AaEOKYUnrWKwZ1b31guK-24" style="edgeStyle=orthogonalEdgeStyle;rounded=0;orthogonalLoop=1;jettySize=auto;html=1;exitX=0.5;exitY=1;exitDx=0;exitDy=0;entryX=0.5;entryY=0;entryDx=0;entryDy=0;" edge="1" parent="1" source="AaEOKYUnrWKwZ1b31guK-14" target="AaEOKYUnrWKwZ1b31guK-23">
          <mxGeometry relative="1" as="geometry" />
        </mxCell>
        <mxCell id="AaEOKYUnrWKwZ1b31guK-14" value="generate:engineer" style="rounded=1;whiteSpace=wrap;html=1;arcSize=50;fillColor=#e1d5e7;strokeColor=#9673a6;" name="generate:engineer" vertex="1" parent="1">
          <mxGeometry x="640" y="830" width="100" height="50" as="geometry" />
        </mxCell>
        <mxCell id="AaEOKYUnrWKwZ1b31guK-16" value="&lt;div&gt;error&lt;/div&gt;&lt;div&gt;|&lt;/div&gt;&lt;div&gt;&amp;nbsp;&amp;nbsp;&amp;nbsp; --&amp;gt;&lt;/div&gt;&lt;div&gt;&lt;br&gt;&lt;/div&gt;" style="text;html=1;align=center;verticalAlign=middle;whiteSpace=wrap;rounded=0;dashed=1;fillColor=#f5f5f5;fontColor=#333333;strokeColor=#666666;strokeWidth=2;" name="text" vertex="1" parent="1">
          <mxGeometry x="430" y="780" width="210" height="100" as="geometry" />
        </mxCell>
        <mxCell id="AaEOKYUnrWKwZ1b31guK-20" style="edgeStyle=orthogonalEdgeStyle;rounded=0;orthogonalLoop=1;jettySize=auto;html=1;exitX=1;exitY=0.5;exitDx=0;exitDy=0;entryX=0.5;entryY=0;entryDx=0;entryDy=0;" edge="1" parent="1" source="AaEOKYUnrWKwZ1b31guK-17" target="AaEOKYUnrWKwZ1b31guK-19">
          <mxGeometry relative="1" as="geometry" />
        </mxCell>
        <mxCell id="AaEOKYUnrWKwZ1b31guK-17" value="generate:train" style="rounded=1;whiteSpace=wrap;html=1;arcSize=50;fillColor=#e1d5e7;strokeColor=#9673a6;" name="generate:train" vertex="1" parent="1">
          <mxGeometry x="770" y="630" width="100" height="50" as="geometry" />
        </mxCell>
        <mxCell id="AaEOKYUnrWKwZ1b31guK-19" value="model:semantic&#xa;FCM" style="shape=hexagon;perimeter=hexagonPerimeter2;fillColor=#b0e3e6;strokeColor=#0e8088;" name="model" vertex="1" parent="1">
          <mxGeometry x="890" y="730" width="120" height="50" as="geometry" />
        </mxCell>
        <mxCell id="AaEOKYUnrWKwZ1b31guK-22" value="&lt;div&gt;error&lt;/div&gt;&lt;div&gt;|&lt;/div&gt;&lt;div&gt;&amp;nbsp;&amp;nbsp;&amp;nbsp; --&amp;gt;&lt;/div&gt;&lt;div&gt;&lt;br&gt;&lt;/div&gt;" style="text;html=1;align=center;verticalAlign=middle;whiteSpace=wrap;rounded=0;dashed=1;fillColor=#f5f5f5;fontColor=#333333;strokeColor=#666666;strokeWidth=2;textDirection=rtl;" name="text" vertex="1" parent="1">
          <mxGeometry x="740" y="780" width="210" height="100" as="geometry" />
        </mxCell>
        <mxCell id="AaEOKYUnrWKwZ1b31guK-26" style="edgeStyle=orthogonalEdgeStyle;rounded=0;orthogonalLoop=1;jettySize=auto;html=1;exitX=0.5;exitY=1;exitDx=0;exitDy=0;entryX=0.5;entryY=0;entryDx=0;entryDy=0;" edge="1" parent="1" source="AaEOKYUnrWKwZ1b31guK-23" target="AaEOKYUnrWKwZ1b31guK-25">
          <mxGeometry relative="1" as="geometry" />
        </mxCell>
        <mxCell id="AaEOKYUnrWKwZ1b31guK-23" value="model:hybrid&#xa;IT2FLS" style="shape=hexagon;perimeter=hexagonPerimeter2;fillColor=#b0e3e6;strokeColor=#0e8088;" name="model" vertex="1" parent="1">
          <mxGeometry x="630" y="960" width="120" height="50" as="geometry" />
        </mxCell>
        <mxCell id="AaEOKYUnrWKwZ1b31guK-30" style="edgeStyle=orthogonalEdgeStyle;rounded=0;orthogonalLoop=1;jettySize=auto;html=1;exitX=0.5;exitY=1;exitDx=0;exitDy=0;entryX=0.5;entryY=0;entryDx=0;entryDy=0;" edge="1" parent="1" source="AaEOKYUnrWKwZ1b31guK-25" target="AaEOKYUnrWKwZ1b31guK-29">
          <mxGeometry relative="1" as="geometry" />
        </mxCell>
        <mxCell id="AaEOKYUnrWKwZ1b31guK-25" value="infer:deduce" style="rounded=1;whiteSpace=wrap;html=1;arcSize=50;fillColor=#bac8d3;strokeColor=#23445d;" name="infer:deduce" vertex="1" parent="1">
          <mxGeometry x="640" y="1090" width="100" height="50" as="geometry" />
        </mxCell>
        <mxCell id="AaEOKYUnrWKwZ1b31guK-28" style="edgeStyle=orthogonalEdgeStyle;rounded=0;orthogonalLoop=1;jettySize=auto;html=1;exitX=0;exitY=0.5;exitDx=0;exitDy=0;entryX=1;entryY=0.5;entryDx=0;entryDy=0;" edge="1" parent="1" source="AaEOKYUnrWKwZ1b31guK-27" target="AaEOKYUnrWKwZ1b31guK-25">
          <mxGeometry relative="1" as="geometry" />
        </mxCell>
        <mxCell id="AaEOKYUnrWKwZ1b31guK-27" value="data:numeric&#xa;Gene Expression&#xa;Data" style="rectangle;fillColor=#fff2cc;strokeColor=#d6b656;" name="data" vertex="1" parent="1">
          <mxGeometry x="820" y="1090" width="100" height="50" as="geometry" />
        </mxCell>
        <mxCell id="AaEOKYUnrWKwZ1b31guK-29" value="symbol&#xa;Classified Samples" style="rectangle;fillColor=#dae8fc;strokeColor=#6c8ebf;" name="symbol" vertex="1" parent="1">
          <mxGeometry x="640" y="1220" width="100" height="50" as="geometry" />
        </mxCell>
        <mxCell id="AaEOKYUnrWKwZ1b31guK-32" value="error" style="text;html=1;align=center;verticalAlign=middle;whiteSpace=wrap;rounded=0;dashed=1;fillColor=#f5f5f5;fontColor=#333333;strokeColor=#666666;strokeWidth=2;" name="text" vertex="1" parent="1">
          <mxGeometry x="540" y="700" width="40" height="30" as="geometry" />
        </mxCell>
      </root>
    </mxGraphModel>
  </diagram>
  <diagram name="Copy of Page-1" id="jN6J1UX9j39wp1TRp6Br">
    <mxGraphModel dx="1310" dy="785" grid="1" gridSize="10" guides="1" tooltips="1" connect="1" arrows="1" fold="1" page="1" pageScale="1" pageWidth="3300" pageHeight="4681" math="0" shadow="0">
      <root>
        <mxCell id="oXT6hOn9-lnZn6S2giPd-0" />
        <mxCell id="oXT6hOn9-lnZn6S2giPd-1" parent="oXT6hOn9-lnZn6S2giPd-0" />
        <mxCell id="oXT6hOn9-lnZn6S2giPd-2" style="edgeStyle=orthogonalEdgeStyle;rounded=0;orthogonalLoop=1;jettySize=auto;html=1;exitX=1;exitY=0.5;exitDx=0;exitDy=0;entryX=0;entryY=0.5;entryDx=0;entryDy=0;" edge="1" parent="oXT6hOn9-lnZn6S2giPd-1" source="oXT6hOn9-lnZn6S2giPd-3" target="oXT6hOn9-lnZn6S2giPd-5">
          <mxGeometry relative="1" as="geometry" />
        </mxCell>
        <mxCell id="oXT6hOn9-lnZn6S2giPd-3" value="data:numeric&#xa;Raw Gene&#xa;Expression" style="rectangle;fillColor=#fff2cc;strokeColor=#d6b656;" name="data" vertex="1" parent="oXT6hOn9-lnZn6S2giPd-1">
          <mxGeometry x="590" y="230" width="100" height="50" as="geometry" />
        </mxCell>
        <mxCell id="oXT6hOn9-lnZn6S2giPd-4" style="edgeStyle=orthogonalEdgeStyle;rounded=0;orthogonalLoop=1;jettySize=auto;html=1;exitX=1;exitY=0.5;exitDx=0;exitDy=0;entryX=0.5;entryY=0;entryDx=0;entryDy=0;" edge="1" parent="oXT6hOn9-lnZn6S2giPd-1" source="oXT6hOn9-lnZn6S2giPd-5" target="oXT6hOn9-lnZn6S2giPd-7">
          <mxGeometry relative="1" as="geometry" />
        </mxCell>
        <mxCell id="oXT6hOn9-lnZn6S2giPd-5" value="transform" style="rounded=1;whiteSpace=wrap;html=1;arcSize=50;fillColor=#f8cecc;strokeColor=#b85450;" name="transform" vertex="1" parent="oXT6hOn9-lnZn6S2giPd-1">
          <mxGeometry x="770" y="230" width="100" height="50" as="geometry" />
        </mxCell>
        <mxCell id="oXT6hOn9-lnZn6S2giPd-6" style="edgeStyle=orthogonalEdgeStyle;rounded=0;orthogonalLoop=1;jettySize=auto;html=1;exitX=0.5;exitY=1;exitDx=0;exitDy=0;entryX=1;entryY=0.5;entryDx=0;entryDy=0;" edge="1" parent="oXT6hOn9-lnZn6S2giPd-1" source="oXT6hOn9-lnZn6S2giPd-7" target="oXT6hOn9-lnZn6S2giPd-9">
          <mxGeometry relative="1" as="geometry" />
        </mxCell>
        <mxCell id="oXT6hOn9-lnZn6S2giPd-7" value="data:numeric&#xa;Normalized Gene&#xa;Expression Data" style="rectangle;fillColor=#fff2cc;strokeColor=#d6b656;" name="data" vertex="1" parent="oXT6hOn9-lnZn6S2giPd-1">
          <mxGeometry x="900" y="330" width="100" height="50" as="geometry" />
        </mxCell>
        <mxCell id="oXT6hOn9-lnZn6S2giPd-8" style="edgeStyle=orthogonalEdgeStyle;rounded=0;orthogonalLoop=1;jettySize=auto;html=1;exitX=0;exitY=0.5;exitDx=0;exitDy=0;entryX=0.5;entryY=0;entryDx=0;entryDy=0;" edge="1" parent="oXT6hOn9-lnZn6S2giPd-1" source="oXT6hOn9-lnZn6S2giPd-9" target="oXT6hOn9-lnZn6S2giPd-12">
          <mxGeometry relative="1" as="geometry" />
        </mxCell>
        <mxCell id="oXT6hOn9-lnZn6S2giPd-9" value="transform" style="rounded=1;whiteSpace=wrap;html=1;arcSize=50;fillColor=#f8cecc;strokeColor=#b85450;" name="transform" vertex="1" parent="oXT6hOn9-lnZn6S2giPd-1">
          <mxGeometry x="770" y="430" width="100" height="50" as="geometry" />
        </mxCell>
        <mxCell id="oXT6hOn9-lnZn6S2giPd-10" style="edgeStyle=orthogonalEdgeStyle;rounded=0;orthogonalLoop=1;jettySize=auto;html=1;exitX=0;exitY=0.5;exitDx=0;exitDy=0;entryX=0.5;entryY=0;entryDx=0;entryDy=0;" edge="1" parent="oXT6hOn9-lnZn6S2giPd-1" source="oXT6hOn9-lnZn6S2giPd-12" target="oXT6hOn9-lnZn6S2giPd-14">
          <mxGeometry relative="1" as="geometry" />
        </mxCell>
        <mxCell id="oXT6hOn9-lnZn6S2giPd-11" style="edgeStyle=orthogonalEdgeStyle;rounded=0;orthogonalLoop=1;jettySize=auto;html=1;exitX=1;exitY=0.5;exitDx=0;exitDy=0;entryX=0.5;entryY=0;entryDx=0;entryDy=0;" edge="1" parent="oXT6hOn9-lnZn6S2giPd-1" source="oXT6hOn9-lnZn6S2giPd-12" target="oXT6hOn9-lnZn6S2giPd-20">
          <mxGeometry relative="1" as="geometry" />
        </mxCell>
        <mxCell id="oXT6hOn9-lnZn6S2giPd-12" value="data:numeric&#xa;Ranked Informative&#xa;Genes" style="rectangle;fillColor=#fff2cc;strokeColor=#d6b656;" name="data" vertex="1" parent="oXT6hOn9-lnZn6S2giPd-1">
          <mxGeometry x="640" y="530" width="100" height="50" as="geometry" />
        </mxCell>
        <mxCell id="oXT6hOn9-lnZn6S2giPd-13" style="edgeStyle=orthogonalEdgeStyle;rounded=0;orthogonalLoop=1;jettySize=auto;html=1;exitX=0;exitY=0.5;exitDx=0;exitDy=0;entryX=0.5;entryY=0;entryDx=0;entryDy=0;" edge="1" parent="oXT6hOn9-lnZn6S2giPd-1" source="oXT6hOn9-lnZn6S2giPd-14" target="oXT6hOn9-lnZn6S2giPd-15">
          <mxGeometry relative="1" as="geometry" />
        </mxCell>
        <mxCell id="oXT6hOn9-lnZn6S2giPd-14" value="infer:deduce" style="rounded=1;whiteSpace=wrap;html=1;arcSize=50;fillColor=#bac8d3;strokeColor=#23445d;" name="infer:deduce" vertex="1" parent="oXT6hOn9-lnZn6S2giPd-1" tooltip="⚠️ Node not part of any valid pattern.">
          <mxGeometry x="510" y="630" width="100" height="50" as="geometry" />
        </mxCell>
        <mxCell id="R4jkzJovllpeCJ6V9iau-0" style="edgeStyle=orthogonalEdgeStyle;rounded=0;orthogonalLoop=1;jettySize=auto;html=1;exitX=0.5;exitY=1;exitDx=0;exitDy=0;entryX=0;entryY=0.5;entryDx=0;entryDy=0;" edge="1" parent="oXT6hOn9-lnZn6S2giPd-1" source="oXT6hOn9-lnZn6S2giPd-15" target="oXT6hOn9-lnZn6S2giPd-17">
          <mxGeometry relative="1" as="geometry" />
        </mxCell>
        <mxCell id="oXT6hOn9-lnZn6S2giPd-15" value="symbol&#xa;Type-2 Fuzzy&#xa;Rules" style="rectangle;fillColor=#dae8fc;strokeColor=#6c8ebf;" name="symbol" vertex="1" parent="oXT6hOn9-lnZn6S2giPd-1" tooltip="⚠️ Node not part of any valid pattern.">
          <mxGeometry x="380" y="730" width="100" height="50" as="geometry" />
        </mxCell>
        <mxCell id="oXT6hOn9-lnZn6S2giPd-16" style="edgeStyle=orthogonalEdgeStyle;rounded=0;orthogonalLoop=1;jettySize=auto;html=1;exitX=0.5;exitY=1;exitDx=0;exitDy=0;entryX=0.5;entryY=0;entryDx=0;entryDy=0;" edge="1" parent="oXT6hOn9-lnZn6S2giPd-1" source="oXT6hOn9-lnZn6S2giPd-17" target="oXT6hOn9-lnZn6S2giPd-24">
          <mxGeometry relative="1" as="geometry" />
        </mxCell>
        <mxCell id="oXT6hOn9-lnZn6S2giPd-17" value="generate:engineer" style="rounded=1;whiteSpace=wrap;html=1;arcSize=50;fillColor=#e1d5e7;strokeColor=#9673a6;" name="generate:engineer" vertex="1" parent="oXT6hOn9-lnZn6S2giPd-1" tooltip="⚠️ Node not part of any valid pattern.">
          <mxGeometry x="640" y="830" width="100" height="50" as="geometry" />
        </mxCell>
        <mxCell id="oXT6hOn9-lnZn6S2giPd-19" style="edgeStyle=orthogonalEdgeStyle;rounded=0;orthogonalLoop=1;jettySize=auto;html=1;exitX=1;exitY=0.5;exitDx=0;exitDy=0;entryX=0.5;entryY=0;entryDx=0;entryDy=0;" edge="1" parent="oXT6hOn9-lnZn6S2giPd-1" source="oXT6hOn9-lnZn6S2giPd-20" target="oXT6hOn9-lnZn6S2giPd-21">
          <mxGeometry relative="1" as="geometry" />
        </mxCell>
        <mxCell id="oXT6hOn9-lnZn6S2giPd-20" value="generate:train" style="rounded=1;whiteSpace=wrap;html=1;arcSize=50;fillColor=#e1d5e7;strokeColor=#9673a6;" name="generate:train" vertex="1" parent="oXT6hOn9-lnZn6S2giPd-1">
          <mxGeometry x="770" y="630" width="100" height="50" as="geometry" />
        </mxCell>
        <mxCell id="R4jkzJovllpeCJ6V9iau-1" style="edgeStyle=orthogonalEdgeStyle;rounded=0;orthogonalLoop=1;jettySize=auto;html=1;exitX=0.5;exitY=1;exitDx=0;exitDy=0;entryX=1;entryY=0.5;entryDx=0;entryDy=0;" edge="1" parent="oXT6hOn9-lnZn6S2giPd-1" source="oXT6hOn9-lnZn6S2giPd-21" target="oXT6hOn9-lnZn6S2giPd-17">
          <mxGeometry relative="1" as="geometry" />
        </mxCell>
        <mxCell id="oXT6hOn9-lnZn6S2giPd-21" value="model:semantic&#xa;FCM" style="shape=hexagon;perimeter=hexagonPerimeter2;fillColor=#b0e3e6;strokeColor=#0e8088;" name="model" vertex="1" parent="oXT6hOn9-lnZn6S2giPd-1" tooltip="⚠️ Node not part of any valid pattern.">
          <mxGeometry x="890" y="730" width="120" height="50" as="geometry" />
        </mxCell>
        <mxCell id="oXT6hOn9-lnZn6S2giPd-23" style="edgeStyle=orthogonalEdgeStyle;rounded=0;orthogonalLoop=1;jettySize=auto;html=1;exitX=0.5;exitY=1;exitDx=0;exitDy=0;entryX=0.5;entryY=0;entryDx=0;entryDy=0;" edge="1" parent="oXT6hOn9-lnZn6S2giPd-1" source="oXT6hOn9-lnZn6S2giPd-24" target="oXT6hOn9-lnZn6S2giPd-26">
          <mxGeometry relative="1" as="geometry" />
        </mxCell>
        <mxCell id="oXT6hOn9-lnZn6S2giPd-24" value="model:hybrid&#xa;IT2FLS" style="shape=hexagon;perimeter=hexagonPerimeter2;fillColor=#b0e3e6;strokeColor=#0e8088;" name="model" vertex="1" parent="oXT6hOn9-lnZn6S2giPd-1">
          <mxGeometry x="630" y="960" width="120" height="50" as="geometry" />
        </mxCell>
        <mxCell id="oXT6hOn9-lnZn6S2giPd-25" style="edgeStyle=orthogonalEdgeStyle;rounded=0;orthogonalLoop=1;jettySize=auto;html=1;exitX=0.5;exitY=1;exitDx=0;exitDy=0;entryX=0.5;entryY=0;entryDx=0;entryDy=0;" edge="1" parent="oXT6hOn9-lnZn6S2giPd-1" source="oXT6hOn9-lnZn6S2giPd-26" target="oXT6hOn9-lnZn6S2giPd-29">
          <mxGeometry relative="1" as="geometry" />
        </mxCell>
        <mxCell id="oXT6hOn9-lnZn6S2giPd-26" value="infer:deduce" style="rounded=1;whiteSpace=wrap;html=1;arcSize=50;fillColor=#bac8d3;strokeColor=#23445d;" name="infer:deduce" vertex="1" parent="oXT6hOn9-lnZn6S2giPd-1">
          <mxGeometry x="640" y="1090" width="100" height="50" as="geometry" />
        </mxCell>
        <mxCell id="oXT6hOn9-lnZn6S2giPd-27" style="edgeStyle=orthogonalEdgeStyle;rounded=0;orthogonalLoop=1;jettySize=auto;html=1;exitX=0;exitY=0.5;exitDx=0;exitDy=0;entryX=1;entryY=0.5;entryDx=0;entryDy=0;" edge="1" parent="oXT6hOn9-lnZn6S2giPd-1" source="oXT6hOn9-lnZn6S2giPd-28" target="oXT6hOn9-lnZn6S2giPd-26">
          <mxGeometry relative="1" as="geometry" />
        </mxCell>
        <mxCell id="oXT6hOn9-lnZn6S2giPd-28" value="data:numeric&#xa;Gene Expression&#xa;Data" style="rectangle;fillColor=#fff2cc;strokeColor=#d6b656;" name="data" vertex="1" parent="oXT6hOn9-lnZn6S2giPd-1">
          <mxGeometry x="820" y="1090" width="100" height="50" as="geometry" />
        </mxCell>
        <mxCell id="oXT6hOn9-lnZn6S2giPd-29" value="symbol&#xa;Classified Samples" style="rectangle;fillColor=#dae8fc;strokeColor=#6c8ebf;" name="symbol" vertex="1" parent="oXT6hOn9-lnZn6S2giPd-1">
          <mxGeometry x="640" y="1220" width="100" height="50" as="geometry" />
        </mxCell>
        <mxCell id="oXT6hOn9-lnZn6S2giPd-30" value="error" style="text;html=1;align=center;verticalAlign=middle;whiteSpace=wrap;rounded=0;dashed=1;fillColor=#f5f5f5;fontColor=#333333;strokeColor=#666666;strokeWidth=2;" name="text" vertex="1" parent="oXT6hOn9-lnZn6S2giPd-1">
          <mxGeometry x="540" y="700" width="40" height="30" as="geometry" />
        </mxCell>
        <mxCell id="R4jkzJovllpeCJ6V9iau-2" value="error" style="text;html=1;align=center;verticalAlign=middle;whiteSpace=wrap;rounded=0;dashed=1;fillColor=#f5f5f5;fontColor=#333333;strokeColor=#666666;strokeWidth=2;" name="text" vertex="1" parent="oXT6hOn9-lnZn6S2giPd-1">
          <mxGeometry x="670" y="790" width="40" height="30" as="geometry" />
        </mxCell>
      </root>
    </mxGraphModel>
  </diagram>
</mxfile>
